<svg width="512" height="512" viewBox="0 0 512 512" role="img" aria-labelledby="title desc" xmlns="http://www.w3.org/2000/svg">
  <title id="title">Morphous</title>
  <desc id="desc">A rounded metallic square with vertical nature-color bands.</desc>
  <defs>
    <linearGradient id="metal" x1="0" x2="1" y1="0" y2="0">
      <stop offset="0" stop-color="#d8d3bd" />
      <stop offset="0.16" stop-color="#4b5a54" />
      <stop offset="0.31" stop-color="#bfc3b2" />
      <stop offset="0.50" stop-color="#f2ecd4" />
      <stop offset="0.69" stop-color="#9aa092" />
      <stop offset="0.85" stop-color="#3d4742" />
      <stop offset="1" stop-color="#f0ead2" />
    </linearGradient>
    <linearGradient id="surface" x1="0" x2="1" y1="0" y2="1">
      <stop offset="0" stop-color="#ffffff" stop-opacity=".50" />
      <stop offset=".48" stop-color="#ffffff" stop-opacity=".05" />
      <stop offset="1" stop-color="#101713" stop-opacity=".28" />
    </linearGradient>
    <filter id="shadow" x="-20%" y="-20%" width="140%" height="140%">
      <feDropShadow dx="0" dy="10" stdDeviation="12" flood-color="#101713" flood-opacity=".24" />
    </filter>
    <clipPath id="clip">
      <rect x="42" y="42" width="428" height="428" rx="96" />
    </clipPath>
  </defs>
  <rect x="42" y="42" width="428" height="428" rx="96" fill="url(#metal)" filter="url(#shadow)" />
  <g clip-path="url(#clip)">
    <rect x="42" y="42" width="428" height="428" fill="url(#metal)" />
    <rect x="92" y="42" width="23" height="428" fill="#263b45" />
    <rect x="119" y="42" width="24" height="428" fill="#2e7f91" />
    <rect x="148" y="42" width="18" height="428" fill="#b66b34" />
    <rect x="171" y="42" width="42" height="428" fill="#d97330" />
    <rect x="218" y="42" width="25" height="428" fill="#46a9b4" />
    <rect x="248" y="42" width="19" height="428" fill="#7d8f83" />
    <rect x="270" y="42" width="122" height="428" fill="#c8c7b5" opacity=".46" />
    <rect x="42" y="42" width="428" height="428" fill="url(#surface)" />
    <path d="M42 82c118 26 290 26 428 0v-40H42v40Z" fill="#ffffff" opacity=".22" />
    <path d="M42 430c130-32 284-32 428 0v40H42v-40Z" fill="#101713" opacity=".16" />
  </g>
  <rect x="42" y="42" width="428" height="428" rx="96" fill="none" stroke="#f8f5ec" stroke-opacity=".74" stroke-width="10" />
  <rect x="53" y="53" width="406" height="406" rx="86" fill="none" stroke="#101713" stroke-opacity=".22" stroke-width="5" />
</svg>
